<svg id="Layer_1" enable-background="new 0 0 512 512" height="512" viewBox="0 0 512 512" width="512" xmlns="http://www.w3.org/2000/svg"><g><circle cx="256" cy="256" fill="#afe6ff" r="256"/><path d="m30.823 418.386h442.831v42.496h-442.831z" fill="#a56941"/><path d="m30.823 418.386h138.882v42.496h-138.882z" fill="#965028"/><g><path d="m261.672 152.382v-144.373" fill="none" stroke="#ffebb4" stroke-miterlimit="10" stroke-width="5.141"/><g><path d="m385.25 418.444h-242.732c-22.982 0-41.612-18.63-41.612-41.612v-39.034h325.957v39.034c-.001 22.982-18.631 41.612-41.613 41.612z" fill="#ef8c3d"/><path d="m142.626 376.832v-39.034h-41.721v39.034c0 22.982 18.631 41.612 41.612 41.612h41.721c-22.982 0-41.612-18.631-41.612-41.612z" fill="#dc6a2f"/><path d="m406.135 336.625h-287.552c0 11.124 9.018 20.143 20.142 20.143h.63c-.178.858-.279 1.729-.279 2.613 0 12.567 18.495 22.755 41.31 22.755 10.407 0 19.913-2.121 27.176-5.62 5.031-2.424 10.961-2.424 15.992 0 7.263 3.499 16.769 5.62 27.176 5.62 4.911 0 9.62-.473 13.988-1.339 8.732-1.733 17.338 2.796 21.079 10.874 4.121 8.901 10.897 14.709 18.561 14.709 7.593 0 14.315-5.702 18.447-14.465 3.418-7.25 11.249-11.47 19.194-10.413 3.117.415 6.371.634 9.719.634 22.815 0 41.311-10.188 41.311-22.755 0-1.26-.194-2.495-.552-3.699 7.939-2.703 13.658-10.204 13.658-19.057z" fill="#82bd1c"/><g><path d="m182.992 359.38c0-.884.101-1.755.279-2.613h-.63c-11.124 0-20.142-9.018-20.142-20.143h-43.916c0 11.124 9.018 20.143 20.142 20.143h.63c-.178.858-.279 1.729-.279 2.613 0 12.567 18.495 22.755 41.31 22.755 8.069 0 15.581-1.286 21.941-3.49-11.612-4.027-19.335-11.147-19.335-19.265z" fill="#74a819"/></g><path d="m394.698 338.739h-266.95c-17.764 0-32.165-14.401-32.165-32.165 0-17.764 14.401-32.165 32.165-32.165h266.95c17.764 0 32.165 14.401 32.165 32.165-.001 17.764-14.401 32.165-32.165 32.165z" fill="#fd4755"/><g><path d="m160.685 326.662c-17.764 0-32.165-14.401-32.165-32.165 0-7.602 2.643-14.583 7.053-20.088h-7.825c-17.764 0-32.165 14.401-32.165 32.165 0 17.764 14.401 32.165 32.165 32.165h266.95c10.162 0 19.218-4.718 25.112-12.077z" fill="#e33442"/></g><path d="m416.446 253.576h-310.447c-5.753 0-10.416 4.664-10.416 10.416 0 5.753 4.664 10.416 10.416 10.416h310.447c5.753 0 10.416-4.664 10.416-10.416 0-5.752-4.663-10.416-10.416-10.416z" fill="#f5cc02"/><path d="m149.38 263.993c0-5.753 4.664-10.416 10.416-10.416h-53.798c-5.753 0-10.416 4.664-10.416 10.416 0 5.753 4.664 10.416 10.416 10.416h53.798c-5.752 0-10.416-4.664-10.416-10.416z" fill="#edb602"/><path d="m262.925 253.576h-136.479c-4.343 0-7.863-3.52-7.863-7.863 0-4.343 3.52-7.863 7.863-7.863h136.479c4.343 0 7.863 3.52 7.863 7.863.001 4.343-3.52 7.863-7.863 7.863z" fill="#fff"/><path d="m387.97 253.576h-95.857c-4.343 0-7.863-3.52-7.863-7.863 0-4.343 3.52-7.863 7.863-7.863h95.857c4.343 0 7.863 3.52 7.863 7.863 0 4.343-3.521 7.863-7.863 7.863z" fill="#fff"/><path d="m307.687 118.675h-92.93c-65.819 0-119.175 53.357-119.175 119.175h331.28c0-65.819-53.356-119.175-119.175-119.175z" fill="#ef8c3d"/><path d="m261.968 118.675h-47.21c-65.819 0-119.175 53.357-119.175 119.175h47.21c0-65.819 53.356-119.175 119.175-119.175z" fill="#dc6a2f"/><g fill="#ffebb4"><path d="m361.17 158.728c0 3.246-2.631 5.877-5.877 5.877s-5.877-2.631-5.877-5.877 2.631-13.562 5.877-13.562 5.877 10.316 5.877 13.562z"/><path d="m298.593 152.118c-2.938 1.379-6.438.114-7.816-2.824s-.114-6.438 2.824-7.816 13.395-3.379 14.774-.441c1.378 2.939-6.844 9.703-9.782 11.081z"/><path d="m323.896 184.032c-1.029 3.078-4.359 4.739-7.437 3.71s-4.739-4.359-3.71-7.437 6.796-12.027 9.874-10.998 2.302 11.647 1.273 14.725z"/><path d="m241.324 153.156c0 3.246-2.631 5.877-5.877 5.877s-5.877-2.631-5.877-5.877 2.631-13.562 5.877-13.562 5.877 10.317 5.877 13.562z"/><path d="m275.489 182.459c1.782 2.712 1.029 6.356-1.684 8.138-2.712 1.782-6.356 1.029-8.138-1.684-1.783-2.712-5.25-12.779-2.537-14.561s10.576 5.394 12.359 8.107z"/><path d="m381.352 191.205c1.783 2.712 1.029 6.356-1.684 8.138-2.712 1.782-6.356 1.029-8.138-1.684-1.782-2.712-5.25-12.779-2.537-14.561 2.712-1.782 10.577 5.394 12.359 8.107z"/><path d="m268.987 123.827c2.891-1.475 6.43-.328 7.906 2.563 1.475 2.891.328 6.43-2.563 7.906-2.891 1.475-13.276 3.821-14.751.93-1.476-2.891 6.517-9.924 9.408-11.399z"/><path d="m178.747 146.547c-2.938 1.379-6.438.114-7.816-2.824s-.114-6.438 2.824-7.816 13.395-3.379 14.774-.441c1.378 2.938-6.844 9.702-9.782 11.081z"/><path d="m204.05 178.46c-1.029 3.078-4.359 4.739-7.437 3.71s-4.739-4.359-3.71-7.437 6.796-12.027 9.874-10.998 2.302 11.647 1.273 14.725z"/><path d="m149.875 185.459c-2.405 2.179-6.122 1.995-8.301-.41s-1.995-6.122.41-8.301 11.818-7.155 13.997-4.75c2.179 2.406-3.701 11.282-6.106 13.461z"/></g></g><path d="m257.969 13.445h75.871v50.551h-75.871z" fill="#fd4755"/><path d="m257.969 13.445h21.214v50.551h-21.214z" fill="#e33442"/></g><path d="m76.564 396.596h160.342v21.79h-160.342z" fill="#f5cc02"/><path d="m76.564 396.596h29.206v21.79h-29.206z" fill="#edb602"/><path d="m44.297 374.806h160.342v21.79h-160.342z" fill="#edb602"/><path d="m44.297 374.806h29.206v21.79h-29.206z" fill="#db9d00"/><path d="m58.899 353.016h160.342v21.79h-160.342z" fill="#f5cc02"/><path d="m58.899 353.016h29.206v21.79h-29.206z" fill="#edb602"/></g></svg>