<svg id="Layer_1" enable-background="new 0 0 512 512" height="512" viewBox="0 0 512 512" width="512" xmlns="http://www.w3.org/2000/svg"><g><g><circle cx="256" cy="256" fill="#afe6ff" r="256"/></g><g><g><path d="m428.835 417.06c-44.35-11.187-43.375-58.794-43.375-58.794l-1.76-18.541h-.005c-8.67-95.442-88.894-170.22-186.595-170.22-103.49 0-187.385 83.895-187.385 187.386 0 34.239 27.757 61.997 61.997 61.997h357.461z" fill="#c45a23"/></g><g><circle cx="68.015" cy="371.667" fill="#fd4755" r="45.784"/></g><g><circle cx="60.57" cy="283.769" fill="#fd4755" r="25.733"/></g><g><circle cx="127.745" cy="227.063" fill="#fd4755" r="32.637"/></g><g><path d="m427.234 358.266-1.761-18.541h-.005c-8.67-95.442-88.893-170.22-186.595-170.22-103.49 0-187.385 83.896-187.385 187.386 0 34.239 27.757 61.997 61.997 61.997h314.708z" fill="#aa321e"/></g><g><path d="m138.608 372.639c-33.855 0-61.397-27.543-61.397-61.397s27.542-61.397 61.397-61.397 61.397 27.543 61.397 61.397-27.542 61.397-61.397 61.397zm0-113.41c-28.68 0-52.013 23.333-52.013 52.013s23.333 52.013 52.013 52.013 52.013-23.333 52.013-52.013-23.333-52.013-52.013-52.013z" fill="#ffebb4"/></g><g><path d="m161.451 345.167c-33.855 0-61.397-27.543-61.397-61.397 0-33.855 27.542-61.397 61.397-61.397s61.397 27.542 61.397 61.397c.001 33.854-27.542 61.397-61.397 61.397zm0-113.41c-28.68 0-52.013 23.333-52.013 52.013s23.333 52.013 52.013 52.013 52.013-23.333 52.013-52.013-23.333-52.013-52.013-52.013z" fill="#ffebb4"/></g><g><path d="m218.156 295.278c-33.855 0-61.397-27.543-61.397-61.397s27.542-61.396 61.397-61.396 61.397 27.542 61.397 61.396c.001 33.854-27.542 61.397-61.397 61.397zm0-113.409c-28.68 0-52.013 23.333-52.013 52.012 0 28.68 23.333 52.013 52.013 52.013s52.013-23.333 52.013-52.013-23.333-52.012-52.013-52.012z" fill="#ffebb4"/></g><g><ellipse cx="127.745" cy="379.306" fill="#97d729" rx="34.632" ry="39.581"/></g><g><ellipse cx="144.029" cy="342.531" fill="#97d729" rx="34.632" ry="31.475"/></g><g><ellipse cx="168.693" cy="250.807" fill="#97d729" rx="34.622" ry="31.466" transform="matrix(-.885 -.465 .465 -.885 201.369 551.296)"/></g><g><ellipse cx="197.837" cy="241.401" fill="#97d729" rx="34.622" ry="31.466" transform="matrix(-.885 -.465 .465 -.885 260.693 547.119)"/></g><g><ellipse cx="168.681" cy="286.541" fill="#97d729" rx="34.622" ry="31.466" transform="matrix(-.885 -.465 .465 -.885 184.729 618.657)"/></g><g><ellipse cx="243.013" cy="201.781" fill="#97d729" rx="34.623" ry="31.467" transform="matrix(-.885 -.465 .465 -.885 364.283 493.44)"/></g><g><path d="m317.91 169.505c-103.49 0-188.463 83.929-188.463 187.418v4.466l246.124 17.918 129.365-15.925.359-6.491c0-103.491-83.895-187.386-187.385-187.386z" fill="#ef8c3d"/></g><g><g><path d="m175.965 362.269-12.107-.881v-4.466c0-97.689 75.72-177.936 171.254-186.624-5.666-.516-11.401-.794-17.202-.794-103.49 0-188.463 83.929-188.463 187.418v4.466l46.518 3.387z" fill="#dc6a2f"/></g><g><path d="m129.447 361.388c-.569 8.964-4.209 35.096-27.122 49.025-6.689 4.066-14.269 6.439-22.05 7.298l-10.645 1.177h373.668c32.727 0 59.51-25.361 61.817-57.5z" fill="#dc6a2f"/></g><g><ellipse cx="251.22" cy="360.919" fill="#dc6a2f" rx="33.064" ry="18.387"/></g><g><ellipse cx="472.303" cy="319.256" fill="#dc6a2f" rx="11.917" ry="6.628"/></g><g><ellipse cx="295.582" cy="303.467" fill="#dc6a2f" rx="17.232" ry="9.27"/></g><g><ellipse cx="365.864" cy="339.67" fill="#dc6a2f" rx="16.319" ry="8.654"/></g><g><ellipse cx="402.72" cy="264.471" fill="#dc6a2f" rx="16.508" ry="9.935"/></g><g><ellipse cx="235.366" cy="238.734" fill="#dc6a2f" rx="9.88" ry="4.854"/></g><g><ellipse cx="322.969" cy="222.064" fill="#dc6a2f" rx="10.155" ry="4.999"/></g></g></g></g></svg>